<svg width="62" height="52" viewBox="0 0 62 52" fill="none" xmlns="http://www.w3.org/2000/svg">
<g filter="url(#filter0_d_20_359)">
<path fill-rule="evenodd" clip-rule="evenodd" d="M34.2692 6.17454C39.6722 7.53028 42.8794 12.747 41.4287 17.8236C40.919 19.6141 39.8996 21.1467 38.5586 22.3256C37.3745 20.2699 35.0691 18.8773 32.4108 18.8773C31.9795 18.8773 31.556 18.9067 31.1483 18.9804C29.7211 15.4437 26.1374 12.9017 21.9029 12.7764C23.4085 7.77343 28.9134 4.82616 34.2692 6.17454Z" fill="#FFC106"/>
<path fill-rule="evenodd" clip-rule="evenodd" d="M11.5441 32H11.4656C8.4466 32 6 29.7085 6 26.8718C6 24.0645 8.39171 21.7877 11.3715 21.7361C11.7244 16.7258 16.155 12.7691 21.5814 12.7691C25.9571 12.7691 29.6897 15.3479 31.1482 18.9804C31.556 18.9068 31.9795 18.8773 32.4108 18.8773C35.9552 18.8773 38.8958 21.3677 39.3349 24.5876C41.5149 24.5876 43.2793 26.2528 43.2793 28.2938C43.2793 30.3127 41.562 31.9558 39.429 32H39.3349H39.2801H32.4813H32.4108H32.3167H21.6833H21.5814H21.4716H11.5441Z" fill="white"/>
<path d="M45.4436 21.7877C45.9141 22.0382 46.0709 22.6056 45.8043 23.0403C45.5377 23.4824 44.9417 23.6297 44.4712 23.3792L43.1146 22.6424C42.652 22.3919 42.4873 21.8319 42.7539 21.3898C43.0284 20.9551 43.6243 20.8004 44.087 21.0509L45.4436 21.7877ZM17.8566 8.9376C17.3861 8.68708 17.2293 8.1271 17.4959 7.68501C17.7625 7.25029 18.3585 7.09556 18.829 7.34607L20.1856 8.08289C20.6482 8.33341 20.8129 8.89339 20.5385 9.33548C20.2718 9.77757 19.6759 9.92494 19.2132 9.67442L17.8566 8.9376ZM23.1184 3.31568C22.8518 2.87359 23.0164 2.31361 23.4791 2.06309C23.9496 1.81257 24.5456 1.95994 24.8122 2.40203L25.5963 3.67672C25.863 4.11144 25.6983 4.67879 25.2356 4.92931C24.7651 5.17983 24.1692 5.0251 23.9025 4.59038L23.1184 3.31568ZM30.6699 0.921022C30.6699 0.412618 31.109 0 31.6501 0C32.1912 0 32.6303 0.412618 32.6303 0.921022V2.39466C32.6303 2.90306 32.1912 3.31568 31.6501 3.31568C31.109 3.31568 30.6699 2.90306 30.6699 2.39466V0.921022ZM38.488 2.39466C38.7625 1.95994 39.3585 1.81257 39.8211 2.06309C40.2916 2.32098 40.4485 2.88096 40.1818 3.31568L39.3977 4.59038C39.1232 5.03247 38.5273 5.17983 38.0568 4.92931C37.5941 4.67142 37.4373 4.11144 37.7039 3.66935L38.488 2.39466ZM44.4712 7.34607C44.9417 7.09556 45.5377 7.25029 45.8043 7.68501C46.0709 8.1271 45.9141 8.68708 45.4436 8.9376L44.087 9.67442C43.6243 9.92494 43.0284 9.77757 42.7539 9.33548C42.4873 8.89339 42.652 8.33341 43.1146 8.08289L44.4712 7.34607ZM47.0198 14.4416C47.5609 14.4416 48 14.8542 48 15.3627C48 15.8711 47.5609 16.2837 47.0198 16.2837H45.4515C44.9104 16.2837 44.4712 15.8711 44.4712 15.3627C44.4712 14.8542 44.9104 14.4416 45.4515 14.4416H47.0198Z" fill="#FFC106"/>
</g>
<defs>
<filter id="filter0_d_20_359" x="0" y="0" width="62" height="52" filterUnits="userSpaceOnUse" color-interpolation-filters="sRGB">
<feFlood flood-opacity="0" result="BackgroundImageFix"/>
<feColorMatrix in="SourceAlpha" type="matrix" values="0 0 0 0 0 0 0 0 0 0 0 0 0 0 0 0 0 0 127 0" result="hardAlpha"/>
<feOffset dx="4" dy="10"/>
<feGaussianBlur stdDeviation="5"/>
<feComposite in2="hardAlpha" operator="out"/>
<feColorMatrix type="matrix" values="0 0 0 0 0 0 0 0 0 0 0 0 0 0 0 0 0 0 0.2 0"/>
<feBlend mode="normal" in2="BackgroundImageFix" result="effect1_dropShadow_20_359"/>
<feBlend mode="normal" in="SourceGraphic" in2="effect1_dropShadow_20_359" result="shape"/>
</filter>
</defs>
</svg>
