<svg width="31" height="31" viewBox="0 0 31 31" fill="none" xmlns="http://www.w3.org/2000/svg">
<path d="M29.9 19.8375C27.7 25.9375 21.9 30.0375 15.4 30.0375C6.9 30.0375 0 23.2375 0 14.8375C0 7.7375 4.9 1.6375 11.9 0.0375C12.2 -0.0625 12.6 0.0375 12.9 0.3375C13.1 0.6375 13.2 1.0375 13.1 1.3375C12.6 2.7375 12.3 4.2375 12.3 5.7375C12.3 13.0375 18.3 18.9375 25.7 18.9375C26.7 18.9375 27.8 18.8375 28.8 18.5375C29.1 18.4375 29.5 18.5375 29.8 18.8375C30 19.1375 30.1 19.5375 29.9 19.8375Z" fill="#8356FE"/>
</svg>
