<svg width="56" height="56" viewBox="0 0 56 56" fill="none" xmlns="http://www.w3.org/2000/svg">
<g filter="url(#filter0_d_20_358)">
<path d="M24 28.0741C29.5637 28.0741 34.0741 23.5638 34.0741 18C34.0741 12.4362 29.5637 7.92593 24 7.92593C18.4362 7.92593 13.9259 12.4362 13.9259 18C13.9259 23.5638 18.4362 28.0741 24 28.0741Z" fill="#FFC106"/>
<path d="M24 2V5.55556" stroke="#FFC106" stroke-width="3" stroke-miterlimit="10" stroke-linecap="round"/>
<path d="M24 30.4444V34" stroke="#FFC106" stroke-width="3" stroke-miterlimit="10" stroke-linecap="round"/>
<path d="M40 18H36.4445" stroke="#FFC106" stroke-width="3" stroke-miterlimit="10" stroke-linecap="round"/>
<path d="M11.5556 18H8" stroke="#FFC106" stroke-width="3" stroke-miterlimit="10" stroke-linecap="round"/>
<path d="M35.3126 6.68739L32.8 9.19998" stroke="#FFC106" stroke-width="3" stroke-miterlimit="10" stroke-linecap="round"/>
<path d="M15.2 26.8L12.6874 29.3126" stroke="#FFC106" stroke-width="3" stroke-miterlimit="10" stroke-linecap="round"/>
<path d="M35.3126 29.3126L32.8 26.8" stroke="#FFC106" stroke-width="3" stroke-miterlimit="10" stroke-linecap="round"/>
<path d="M15.2 9.19998L12.6874 6.68739" stroke="#FFC106" stroke-width="3" stroke-miterlimit="10" stroke-linecap="round"/>
</g>
<defs>
<filter id="filter0_d_20_358" x="0.5" y="0.5" width="55" height="55" filterUnits="userSpaceOnUse" color-interpolation-filters="sRGB">
<feFlood flood-opacity="0" result="BackgroundImageFix"/>
<feColorMatrix in="SourceAlpha" type="matrix" values="0 0 0 0 0 0 0 0 0 0 0 0 0 0 0 0 0 0 127 0" result="hardAlpha"/>
<feOffset dx="4" dy="10"/>
<feGaussianBlur stdDeviation="5"/>
<feComposite in2="hardAlpha" operator="out"/>
<feColorMatrix type="matrix" values="0 0 0 0 0 0 0 0 0 0 0 0 0 0 0 0 0 0 0.2 0"/>
<feBlend mode="normal" in2="BackgroundImageFix" result="effect1_dropShadow_20_358"/>
<feBlend mode="normal" in="SourceGraphic" in2="effect1_dropShadow_20_358" result="shape"/>
</filter>
</defs>
</svg>
