<svg width="24" height="17" viewBox="0 0 24 17" fill="none" xmlns="http://www.w3.org/2000/svg">
<path d="M12.0001 3.30288C12.1711 3.30288 12.3352 3.24106 12.4562 3.13103C12.5772 3.021 12.6451 2.87176 12.6451 2.71615V0.586726C12.6451 0.431116 12.5772 0.28188 12.4562 0.171848C12.3352 0.0618156 12.1711 0 12.0001 0C11.829 0 11.6649 0.0618156 11.5439 0.171848C11.4229 0.28188 11.355 0.431116 11.355 0.586726V2.71615C11.355 2.87176 11.4229 3.021 11.5439 3.13103C11.6649 3.24106 11.829 3.30288 12.0001 3.30288Z" fill="#FFC106"/>
<path d="M18.2738 9.00927C18.2738 9.16487 18.3418 9.31411 18.4627 9.42414C18.5837 9.53417 18.7478 9.59599 18.9189 9.59599H21.2601C21.4312 9.59599 21.5952 9.53417 21.7162 9.42414C21.8372 9.31411 21.9052 9.16487 21.9052 9.00927C21.9052 8.85366 21.8372 8.70442 21.7162 8.59439C21.5952 8.48435 21.4312 8.42254 21.2601 8.42254H18.9189C18.7478 8.42254 18.5837 8.48435 18.4627 8.59439C18.3418 8.70442 18.2738 8.85366 18.2738 9.00927Z" fill="#FFC106"/>
<path d="M2.74004 9.59599H5.08126C5.25234 9.59599 5.41642 9.53417 5.53739 9.42414C5.65836 9.31411 5.72633 9.16487 5.72633 9.00927C5.72633 8.85366 5.65836 8.70442 5.53739 8.59439C5.41642 8.48435 5.25234 8.42254 5.08126 8.42254H2.74004C2.56896 8.42254 2.40488 8.48435 2.28391 8.59439C2.16293 8.70442 2.09497 8.85366 2.09497 9.00927C2.09497 9.16487 2.16293 9.31411 2.28391 9.42414C2.40488 9.53417 2.56896 9.59599 2.74004 9.59599Z" fill="#FFC106"/>
<path d="M6.65137 4.97417C6.71122 5.02885 6.78235 5.07227 6.86067 5.10192C6.93899 5.13157 7.02297 5.14687 7.1078 5.14696C7.19263 5.14705 7.27665 5.13192 7.35505 5.10244C7.43344 5.07295 7.50467 5.02969 7.56466 4.97513C7.62465 4.92057 7.67222 4.85579 7.70464 4.78448C7.73707 4.71318 7.75371 4.63676 7.75362 4.5596C7.75352 4.48244 7.7367 4.40605 7.70411 4.33482C7.67151 4.26358 7.62379 4.19889 7.56367 4.14445L5.90822 2.6387C5.8484 2.5839 5.77727 2.54039 5.69892 2.51065C5.62057 2.48091 5.53653 2.46553 5.45163 2.46539C5.36673 2.46525 5.28264 2.48036 5.20417 2.50985C5.1257 2.53934 5.05441 2.58262 4.99437 2.63722C4.93433 2.69183 4.88674 2.75667 4.85432 2.82804C4.82189 2.89941 4.80528 2.9759 4.80542 3.05312C4.80557 3.13034 4.82247 3.20677 4.85516 3.27804C4.88785 3.34931 4.93569 3.414 4.99593 3.46842L6.65137 4.97417Z" fill="#FFC106"/>
<path d="M16.8925 5.14603C16.9772 5.14613 17.0612 5.13099 17.1394 5.1015C17.2177 5.07201 17.2888 5.02873 17.3487 4.97417L19.0041 3.46842C19.0643 3.414 19.1122 3.34931 19.1449 3.27804C19.1776 3.20677 19.1945 3.13034 19.1946 3.05312C19.1947 2.9759 19.1781 2.89941 19.1457 2.82804C19.1133 2.75667 19.0657 2.69183 19.0057 2.63722C18.9456 2.58262 18.8743 2.53934 18.7959 2.50985C18.7174 2.48036 18.6333 2.46525 18.5484 2.46539C18.4635 2.46553 18.3795 2.48091 18.3011 2.51065C18.2228 2.54039 18.1516 2.5839 18.0918 2.6387L16.4364 4.14445C16.3461 4.2265 16.2847 4.33105 16.2598 4.44486C16.2349 4.55867 16.2477 4.67664 16.2965 4.78385C16.3454 4.89105 16.428 4.98269 16.5341 5.04715C16.6402 5.11162 16.7649 5.14603 16.8925 5.14603Z" fill="#FFC106"/>
<path d="M23.3549 10.9433H17.023C17.375 10.1886 17.516 9.36648 17.4334 8.5502C17.3508 7.73393 17.0472 6.94897 16.5497 6.26546C16.0522 5.58195 15.3763 5.02117 14.5824 4.63321C13.7884 4.24526 12.9012 4.04221 12 4.04221C11.0988 4.04221 10.2116 4.24526 9.41765 4.63321C8.62374 5.02117 7.94784 5.58195 7.45034 6.26546C6.95284 6.94897 6.64923 7.73393 6.56664 8.5502C6.48404 9.36648 6.62504 10.1886 6.97702 10.9433H0.64507C0.473987 10.9433 0.309911 11.0051 0.188937 11.1151C0.0679625 11.2251 0 11.3744 0 11.53C0 11.6856 0.0679625 11.8348 0.188937 11.9449C0.309911 12.0549 0.473987 12.1167 0.64507 12.1167H23.3549C23.526 12.1167 23.6901 12.0549 23.8111 11.9449C23.932 11.8348 24 11.6856 24 11.53C24 11.3744 23.932 11.2251 23.8111 11.1151C23.6901 11.0051 23.526 10.9433 23.3549 10.9433Z" fill="#FFC106"/>
<path d="M18.935 13.3849H5.06499C4.89391 13.3849 4.72983 13.4467 4.60886 13.5568C4.48788 13.6668 4.41992 13.816 4.41992 13.9716C4.41992 14.1272 4.48788 14.2765 4.60886 14.3865C4.72983 14.4965 4.89391 14.5584 5.06499 14.5584H18.935C19.1061 14.5584 19.2702 14.4965 19.3911 14.3865C19.5121 14.2765 19.5801 14.1272 19.5801 13.9716C19.5801 13.816 19.5121 13.6668 19.3911 13.5568C19.2702 13.4467 19.1061 13.3849 18.935 13.3849Z" fill="#FFC106"/>
<path d="M14.1096 15.8266H9.89043C9.71935 15.8266 9.55527 15.8884 9.4343 15.9984C9.31332 16.1084 9.24536 16.2577 9.24536 16.4133C9.24536 16.5689 9.31332 16.7181 9.4343 16.8282C9.55527 16.9382 9.71935 17 9.89043 17H14.1096C14.2807 17 14.4447 16.9382 14.5657 16.8282C14.6867 16.7181 14.7547 16.5689 14.7547 16.4133C14.7547 16.2577 14.6867 16.1084 14.5657 15.9984C14.4447 15.8884 14.2807 15.8266 14.1096 15.8266Z" fill="#FFC106"/>
</svg>
