<svg width="23" height="19" viewBox="0 0 23 19" fill="none" xmlns="http://www.w3.org/2000/svg">
<path fill-rule="evenodd" clip-rule="evenodd" d="M15.4808 3.59858C18.4395 4.38872 20.1959 7.42905 19.4014 10.3878C19.1223 11.4313 18.564 12.3245 17.8297 13.0116C17.1813 11.8135 15.9188 11.0019 14.463 11.0019C14.2269 11.0019 13.995 11.019 13.7717 11.062C12.9901 9.00075 11.0276 7.51923 8.70874 7.44623C9.53324 4.53043 12.5478 2.81273 15.4808 3.59858Z" fill="#273E7F"/>
<path fill-rule="evenodd" clip-rule="evenodd" d="M3.03603 18.6499H2.99309C1.33981 18.6499 0 17.3144 0 15.6611C0 14.025 1.30975 12.6981 2.94156 12.668C3.1348 9.74795 5.56105 7.44194 8.53267 7.44194C10.9289 7.44194 12.9729 8.94492 13.7717 11.062C13.995 11.019 14.2268 11.0019 14.463 11.0019C16.404 11.0019 18.0144 12.4533 18.2549 14.3299C19.4487 14.3299 20.4149 15.3004 20.4149 16.4899C20.4149 17.6665 19.4744 18.6242 18.3064 18.6499H18.2549H18.2248H14.5017H14.463H14.4115H8.5885H8.53267H8.47256H3.03603Z" fill="white"/>
<path d="M21.6 12.6981C21.8577 12.8441 21.9436 13.1748 21.7976 13.4281C21.6515 13.6858 21.3252 13.7717 21.0675 13.6257L20.3246 13.1962C20.0713 13.0502 19.9811 12.7239 20.1271 12.4662C20.2774 12.2128 20.6038 12.1227 20.8571 12.2687L21.6 12.6981ZM6.49285 5.20892C6.23519 5.06292 6.14931 4.73656 6.29531 4.4789C6.44132 4.22554 6.76768 4.13536 7.02534 4.28137L7.76824 4.71079C8.0216 4.8568 8.11178 5.18316 7.96148 5.44081C7.81548 5.69847 7.48911 5.78435 7.23575 5.63835L6.49285 5.20892ZM9.37429 1.93241C9.22829 1.67476 9.31846 1.34839 9.57183 1.20239C9.82948 1.05639 10.1558 1.14227 10.3018 1.39993L10.7313 2.14283C10.8773 2.39619 10.7871 2.72685 10.5337 2.87285C10.2761 3.01886 9.94972 2.92868 9.80371 2.67532L9.37429 1.93241ZM13.5097 0.536781C13.5097 0.240478 13.7501 0 14.0464 0C14.3427 0 14.5832 0.240478 14.5832 0.536781V1.39563C14.5832 1.69193 14.3427 1.93241 14.0464 1.93241C13.7501 1.93241 13.5097 1.69193 13.5097 1.39563V0.536781ZM17.791 1.39563C17.9413 1.14227 18.2677 1.05639 18.521 1.20239C18.7787 1.35269 18.8646 1.67905 18.7186 1.93241L18.2892 2.67532C18.1389 2.93297 17.8125 3.01886 17.5548 2.87285C17.3015 2.72255 17.2156 2.39619 17.3616 2.13854L17.791 1.39563ZM21.0675 4.28137C21.3252 4.13536 21.6515 4.22554 21.7976 4.4789C21.9436 4.73656 21.8577 5.06292 21.6 5.20892L20.8571 5.63835C20.6038 5.78435 20.2774 5.69847 20.1271 5.44081C19.9811 5.18316 20.0713 4.8568 20.3246 4.71079L21.0675 4.28137ZM22.4632 8.41673C22.7595 8.41673 22.9999 8.65721 22.9999 8.95351C22.9999 9.24981 22.7595 9.49029 22.4632 9.49029H21.6043C21.308 9.49029 21.0675 9.24981 21.0675 8.95351C21.0675 8.65721 21.308 8.41673 21.6043 8.41673H22.4632Z" fill="#273E7F"/>
</svg>
